<svg width="210" height="209" xmlns="http://www.w3.org/2000/svg" xmlns:xlink="http://www.w3.org/1999/xlink"><defs><path d="M64.173 121.735c0-.46.094-.784.283-.973.188-.188.387-.282.596-.282.585 0 1.275.199 2.07.596.795.397 1.778.596 2.949.596 1.129 0 2.039-.387 2.729-1.16.69-.774 1.035-1.621 1.035-2.541 0-.837-.199-1.82-.596-2.949a42.552 42.552 0 0 0-1.474-3.607 111.435 111.435 0 0 0-1.914-3.953c-.69-1.36-1.328-2.677-1.913-3.952a42.552 42.552 0 0 1-1.475-3.608c-.397-1.13-.596-2.091-.596-2.886 0-.71.283-1.725.847-3.043.565-1.317 1.318-2.645 2.259-3.983a16.7 16.7 0 0 1 3.262-3.482c1.234-.983 2.52-1.475 3.858-1.475.293 0 .722.032 1.287.094a11.1 11.1 0 0 1 1.662.314 6.486 6.486 0 0 1 1.443.565c.418.23.627.512.627.847 0 .836-.156 1.38-.47 1.631-.314.25-1.056.397-2.227.44-2.76.083-4.747.72-5.96 1.913-1.213 1.192-1.82 2.666-1.82 4.423 0 1.087.356 2.457 1.067 4.109a340.47 340.47 0 0 0 2.352 5.333 73.678 73.678 0 0 1 2.353 5.897c.711 2.028 1.067 3.963 1.067 5.803 0 .335-.105 1.025-.314 2.07-.21 1.046-.596 2.123-1.16 3.232a10.699 10.699 0 0 1-2.26 2.98c-.94.878-2.164 1.317-3.67 1.317-.376 0-.857-.063-1.442-.188a12.506 12.506 0 0 1-1.726-.502 12.946 12.946 0 0 1-1.505-.659c-.44-.23-.7-.45-.785-.659-.125-.376-.23-.742-.313-1.097a5.064 5.064 0 0 1-.126-1.161zm96.428-13.551l-4.956-9.725c-.502-.962-.826-1.704-.973-2.227-.146-.523-.366-.784-.658-.784-.126 0-.24.094-.345.282-.105.188-.21.429-.314.722-.105.292-.199.585-.282.878a4.717 4.717 0 0 1-.314.816l-3.262 6.65c-.46.962-.795 1.641-1.004 2.039-.21.397-.314.7-.314.91 0 .292.356.439 1.067.439H160.6zm-9.85 2.886c-1.004 0-1.809.01-2.415.03-.607.022-1.088.095-1.443.22a1.79 1.79 0 0 0-.847.596c-.21.272-.397.66-.565 1.161-.209.627-.533 1.38-.972 2.259l-1.318 2.635a245.98 245.98 0 0 0-1.192 2.415c-.355.732-.575 1.286-.658 1.663-.126.71-.283 1.181-.47 1.411-.19.23-.43.366-.722.408-.419.042-.91.094-1.475.157a54.64 54.64 0 0 1-3.106.251c-.418.02-.668.031-.752.031-.21 0-.366-.115-.47-.345a1.592 1.592 0 0 1-.157-.659c0-.585.052-.972.156-1.16.105-.189.304-.324.596-.408.628-.167 1.266-.47 1.914-.91.648-.439 1.181-1.223 1.6-2.352.083-.293.45-1.036 1.098-2.228l2.352-4.329c.92-1.693 1.914-3.534 2.98-5.52a127.65 127.65 0 0 0 2.949-5.835c.9-1.903 1.642-3.67 2.227-5.301.586-1.632.878-2.928.878-3.89 0-.126-.041-.303-.125-.533-.084-.23-.178-.492-.282-.785l-.283-.784c-.083-.23-.125-.408-.125-.533 0-.21.136-.44.408-.69.272-.251.596-.492.972-.722.377-.23.753-.418 1.13-.564.376-.147.669-.22.878-.22.25 0 .638.261 1.16.784a6.51 6.51 0 0 1 1.286 1.851 1480.38 1480.38 0 0 1 4.518 9.662c1.589 3.43 3.576 7.235 5.96 11.418 1.505 2.635 2.77 4.726 3.795 6.274 1.025 1.547 1.851 2.729 2.478 3.544.628.816 1.077 1.37 1.35 1.663.271.293.407.502.407.627 0 .46-.157.764-.47.91-.314.146-.638.22-.973.22-.25 0-.606-.021-1.066-.063a20.03 20.03 0 0 1-1.443-.188 62.335 62.335 0 0 1-1.412-.251c-.44-.084-.763-.168-.972-.251-.377-.084-.69-.345-.941-.785a7.297 7.297 0 0 1-.628-1.474c-.125-.376-.387-1.014-.784-1.913-.397-.9-.826-1.81-1.286-2.73-.46-.92-.9-1.746-1.318-2.478-.418-.732-.732-1.14-.94-1.223-.419-.21-1.13-.387-2.134-.533a44.804 44.804 0 0 0-3.262-.345 65.443 65.443 0 0 0-3.45-.157c-1.13-.021-2.008-.031-2.636-.031zm50.692 9.034c.586-.042 1.171-.24 1.757-.596.585-.356 1.108-.534 1.568-.534.711 0 1.067.272 1.067.816 0 .126-.052.429-.157.91-.104.48-.25.983-.44 1.505a11.512 11.512 0 0 1-.626 1.443c-.23.44-.471.66-.722.66-.376 0-.721-.053-1.035-.158l-1.412-.47c-.083-.042-.23-.073-.439-.094a21.143 21.143 0 0 0-1.066-.063 124.702 124.702 0 0 0-5.333-.094 124.702 124.702 0 0 0-5.458.094c-.502.02-.868.063-1.098.125a3.25 3.25 0 0 0-.596.22c-.544.293-1.192.44-1.945.44-.251 0-.512-.147-.784-.44a9.352 9.352 0 0 1-.785-.972 5.463 5.463 0 0 1-.596-1.067c-.146-.356-.22-.596-.22-.721 0-.335.21-.722.628-1.161.419-.44.628-1.056.628-1.85.041-.67.073-1.486.094-2.448.02-.962.031-2.09.031-3.387v-8.846c0-3.054-.104-5.49-.314-7.31-.209-1.819-.428-3.24-.658-4.266-.23-1.024-.45-1.735-.66-2.133-.208-.397-.313-.721-.313-.972 0-.21.199-.523.596-.941a11.67 11.67 0 0 1 1.38-1.224 13.499 13.499 0 0 1 1.569-1.035c.523-.292.889-.439 1.098-.439.376 0 .836.136 1.38.408.544.272.816.638.816 1.098 0 .376-.084.836-.251 1.38a5.727 5.727 0 0 0-.251 1.694c0 1.882-.063 3.743-.188 5.584a81.02 81.02 0 0 0-.125 8.69c.04 1.023.062 2.226.062 3.606 0 1.297-.042 2.625-.126 3.984-.083 1.36-.167 2.625-.25 3.796a132.457 132.457 0 0 1-.252 3.074c-.083.878-.125 1.506-.125 1.882 0 .335.25.502.753.502.209 0 .429-.042.659-.126.23-.083.491-.125.784-.125l11.355-.44z" id="a"/></defs><g fill="none" fill-rule="evenodd"><g opacity=".5" fill="#D8D8D8"><path d="M90.439 116.95l-55.732 33.29 53.12-37.399a18.793 18.793 0 0 0 2.612 4.107zm10.047-30.36L99.419.472l7.942 85.758a18.928 18.928 0 0 0-3.454-.134c-1.174.062-2.318.23-3.421.494zm11.194.742l21.775-39.431-19.074 40.735c-.86-.504-1.763-.94-2.701-1.304zm7.38 5.17l55.871-33.375-53.16 37.428a18.812 18.812 0 0 0-2.71-4.053zm-9.762 30.692l1.066 86.117-7.941-85.757c1.125.147 2.28.195 3.454.133a18.928 18.928 0 0 0 3.42-.493zm-12.023-1.087L76.493 159.74l18.257-38.99c.803.514 1.647.969 2.525 1.358zm23.417-6.986l39.541 23.585-41.447-21.118a18.924 18.924 0 0 0 1.906-2.467zm-4.412 4.758l30.884 56.387-35.058-53.985a18.758 18.758 0 0 0 4.174-2.402zm-30.184-14.002L.472 110.364l86.589-11.513a18.77 18.77 0 0 0-.965 7.026zm1.907-9.3l-39.037-19.89 40.54 17.364c-.565.8-1.068 1.644-1.503 2.526zm3.796-5.206L55.61 35.646l40.18 52.766a18.849 18.849 0 0 0-3.99 2.958zm31.888 12.536l85.624-4.488-86.588 11.514a18.77 18.77 0 0 0 .964-7.026z"/><path d="M93.704 87.219l1.422 1.579c-5.045 3.068-8.501 8.43-8.995 14.56l-2.147 2.001c-.173-7.564 3.716-14.332 9.72-18.14zm11.153-3.24c6.78-.017 12.88 3.227 16.727 8.311l-1.433.075.085 1.623c-3.467-4.868-9.179-7.987-15.538-7.917l1.128-1.016-.969-1.076zm-17.411 32.45l1.553-1.449c3.524 5.542 9.852 9.076 16.878 8.707.42-.022.838-.057 1.25-.106l.11 2.092c-.413.046-.83.08-1.25.103-7.668.402-14.587-3.38-18.541-9.347zm26.682 4.867c5.096-2.875 8.685-8.043 9.438-14.032l2.119-.111c-.77 7.164-5.186 13.317-11.436 16.447l-.121-2.304z"/></g><g transform="rotate(-9 100.739 134.783)" fill="#FFF"><use xlink:href="#a"/><use xlink:href="#a"/></g></g></svg>