<?xml version="1.0" encoding="UTF-8"?>
<svg width="210px" height="209px" viewBox="0 0 210 209" version="1.1" xmlns="http://www.w3.org/2000/svg" xmlns:xlink="http://www.w3.org/1999/xlink">
    <!-- Generator: Sketch 52.6 (67491) - http://www.bohemiancoding.com/sketch -->
    <title>soal150</title>
    <desc>Created with Sketch.</desc>
    <defs>
        <path d="M64.173316,121.734902 C64.173316,121.274824 64.2674215,120.950682 64.4556354,120.762469 C64.6438493,120.574255 64.8425165,120.480149 65.051643,120.480149 C65.6371973,120.480149 66.3273044,120.678816 67.1219852,121.076157 C67.916666,121.473497 68.8995459,121.672164 70.0706544,121.672164 C71.1999376,121.672164 72.1096244,121.285286 72.7997419,120.511518 C73.4898594,119.73775 73.834913,118.8908 73.834913,117.970644 C73.834913,117.134137 73.6362458,116.151258 73.2389054,115.021974 C72.841565,113.892691 72.350125,112.690232 71.7645708,111.41456 C71.1790165,110.138888 70.5411902,108.821411 69.8510727,107.462088 C69.1609552,106.102766 68.5231288,104.785289 67.9375746,103.509617 C67.3520203,102.233945 66.8605804,101.031486 66.46324,99.9022025 C66.0658996,98.7729193 65.8672324,97.8109517 65.8672324,97.0162709 C65.8672324,96.3052407 66.1495489,95.2909923 66.7141905,93.9734952 C67.2788321,92.6559982 68.0316763,91.3280647 68.9727457,89.9896549 C69.913815,88.6512452 71.0012566,87.4906104 72.2351031,86.5077158 C73.4689496,85.5248211 74.7550584,85.0333812 76.0934681,85.0333812 C76.3862452,85.0333812 76.8149482,85.0647497 77.3795898,85.1274876 C77.9442314,85.1902256 78.4984084,85.2947873 79.0421373,85.4411759 C79.5858663,85.5875644 80.06685,85.7757755 80.4851031,86.0058146 C80.9033561,86.2358538 81.1124795,86.5181704 81.1124795,86.8527728 C81.1124795,87.6892789 80.955637,88.2329997 80.6419472,88.4839515 C80.3282574,88.7349033 79.5858694,88.8812897 78.4147609,88.923115 C75.6542908,89.0067656 73.6676187,89.6445919 72.4546848,90.8366131 C71.241751,92.0286343 70.6352932,93.5029541 70.6352932,95.2596169 C70.6352932,96.3470748 70.990803,97.716833 71.7018331,99.3689325 C72.4128633,101.021032 73.197076,102.798581 74.0544947,104.701632 C74.9119135,106.604683 75.6961261,108.570443 76.4071563,110.598971 C77.1181865,112.627498 77.4736962,114.561889 77.4736962,116.402202 C77.4736962,116.736805 77.3691346,117.426912 77.160008,118.472545 C76.9508815,119.518177 76.5640032,120.595163 75.9993616,121.703533 C75.43472,122.811904 74.6818759,123.80524 73.7408065,124.683571 C72.7997372,125.561903 71.5763654,126.001062 70.0706544,126.001062 C69.6942267,126.001062 69.2132429,125.938325 68.6276886,125.812849 C68.0421344,125.687373 67.4670451,125.520074 66.9024035,125.310948 C66.3377619,125.101821 65.8358657,124.882242 65.3967,124.652202 C64.9575344,124.422163 64.6961301,124.202584 64.6124795,123.993457 C64.4870036,123.617029 64.3824419,123.251064 64.2987913,122.895548 C64.2151407,122.540033 64.173316,122.153155 64.173316,121.734902 Z M160.601073,108.183571 L155.644799,98.4592367 C155.142895,97.4972547 154.818754,96.7548667 154.672365,96.2320504 C154.525977,95.7092341 154.306397,95.4478298 154.01362,95.4478298 C153.888144,95.4478298 153.773126,95.5419354 153.668563,95.7301492 C153.564,95.9183631 153.459438,96.158855 153.354875,96.4516321 C153.250312,96.7444093 153.156206,97.037182 153.072556,97.3299591 C152.988905,97.6227363 152.884343,97.8945967 152.758867,98.1455485 L149.49651,104.795739 C149.036432,105.757721 148.701834,106.437372 148.492708,106.834712 C148.283581,107.232052 148.179019,107.535281 148.179019,107.744408 C148.179019,108.037185 148.534529,108.183571 149.245559,108.183571 L160.601073,108.183571 Z M150.751263,111.069503 C149.747455,111.069503 148.94233,111.079959 148.335864,111.100872 C147.729397,111.121784 147.248413,111.194978 146.892898,111.320453 C146.537383,111.445929 146.255066,111.644597 146.04594,111.916461 C145.836813,112.188326 145.648602,112.575204 145.481301,113.077107 C145.272174,113.704487 144.948033,114.457331 144.508867,115.335663 L143.191377,117.970644 C142.752211,118.848975 142.354877,119.6541 141.999362,120.386043 C141.643847,121.117986 141.424267,121.672163 141.340616,122.04859 C141.21514,122.75962 141.058298,123.230148 140.870084,123.460187 C140.68187,123.690226 140.441378,123.826157 140.148601,123.867982 C139.730348,123.909807 139.238908,123.962088 138.674267,124.024826 C138.109625,124.087564 137.555448,124.139845 137.011719,124.18167 C136.46799,124.223495 135.987006,124.254864 135.568753,124.275777 C135.1505,124.296689 134.899552,124.307145 134.815902,124.307145 C134.606775,124.307145 134.449933,124.192128 134.345369,123.962088 C134.240806,123.732049 134.188525,123.51247 134.188525,123.303343 C134.188525,122.717789 134.240806,122.330911 134.345369,122.142697 C134.449933,121.954483 134.6486,121.818553 134.941377,121.734902 C135.568756,121.567601 136.206583,121.264372 136.854875,120.825206 C137.503167,120.386041 138.036432,119.601828 138.454685,118.472545 C138.538335,118.179768 138.904301,117.43738 139.552594,116.245358 C140.200886,115.053337 140.985098,113.610386 141.905255,111.916461 C142.825412,110.222536 143.818748,108.38225 144.885293,106.395548 C145.951838,104.408847 146.934718,102.463999 147.833962,100.560948 C148.733206,98.6578964 149.475594,96.8908038 150.061149,95.2596169 C150.646703,93.6284301 150.939476,92.3318651 150.939476,91.3698831 C150.939476,91.2444072 150.897651,91.0666523 150.814,90.8366131 C150.73035,90.6065739 150.636244,90.3451697 150.531681,90.0523926 C150.427118,89.7596155 150.333012,89.4982112 150.249362,89.2681721 C150.165711,89.0381329 150.123886,88.860378 150.123886,88.7349021 C150.123886,88.5257756 150.259817,88.2957398 150.531681,88.044788 C150.803546,87.7938362 151.127687,87.5533443 151.504114,87.3233051 C151.880542,87.093266 152.256964,86.9050549 152.633392,86.7586663 C153.00982,86.6122778 153.302593,86.5390846 153.511719,86.5390846 C153.762671,86.5390846 154.149549,86.8004888 154.672365,87.3233051 C155.195182,87.8461214 155.623885,88.4630354 155.958487,89.1740656 C157.380547,92.1854875 158.886236,95.4059876 160.475597,98.8356625 C162.064959,102.265337 164.051631,106.071383 166.435673,110.253913 C167.941384,112.888908 169.206581,114.980142 170.231301,116.527678 C171.256021,118.075214 172.082058,119.256761 172.709438,120.072355 C173.336817,120.887948 173.786433,121.442125 174.058297,121.734902 C174.330161,122.027679 174.466092,122.236803 174.466092,122.362279 C174.466092,122.822357 174.309249,123.125586 173.995559,123.271974 C173.68187,123.418363 173.357728,123.491556 173.023126,123.491556 C172.772174,123.491556 172.416664,123.470644 171.956586,123.428818 C171.496508,123.386993 171.015524,123.324256 170.51362,123.240606 C170.011717,123.156955 169.541189,123.073306 169.102023,122.989655 C168.662858,122.906004 168.338716,122.822355 168.12959,122.738704 C167.753162,122.655054 167.439477,122.39365 167.188525,121.954484 C166.937573,121.515318 166.72845,121.023878 166.561149,120.480149 C166.435673,120.103722 166.174269,119.465895 165.776928,118.566651 C165.379588,117.667407 164.950885,116.75772 164.490807,115.837564 C164.030728,114.917407 163.591569,114.09137 163.173316,113.359427 C162.755063,112.627484 162.441378,112.219693 162.232251,112.136043 C161.813998,111.926916 161.102979,111.749161 160.099172,111.602773 C159.095364,111.456384 158.007923,111.341366 156.836814,111.257716 C155.665706,111.174065 154.515527,111.121784 153.386244,111.100872 C152.256961,111.079959 151.378642,111.069503 150.751263,111.069503 Z M201.443278,120.103723 C202.028832,120.061898 202.614378,119.863231 203.199932,119.507716 C203.785486,119.152201 204.308295,118.974446 204.768373,118.974446 C205.479403,118.974446 205.834913,119.246306 205.834913,119.790035 C205.834913,119.915511 205.782632,120.21874 205.678069,120.699731 C205.573506,121.180722 205.427119,121.682618 205.238905,122.205434 C205.050692,122.728251 204.841568,123.209234 204.611529,123.6484 C204.38149,124.087566 204.140998,124.307145 203.890046,124.307145 C203.513618,124.307145 203.168565,124.254865 202.854875,124.150301 C202.541185,124.045738 202.070658,123.888896 201.443278,123.679769 C201.359627,123.637944 201.213241,123.606575 201.004114,123.585663 C200.794988,123.56475 200.439478,123.543838 199.937575,123.522925 C199.435671,123.502012 198.75602,123.4811 197.898601,123.460187 C197.041182,123.439275 195.943285,123.428818 194.604875,123.428818 C193.182815,123.428818 192.043092,123.439275 191.185673,123.460187 C190.328255,123.4811 189.648604,123.502012 189.1467,123.522925 C188.644796,123.543838 188.27883,123.585662 188.048791,123.6484 C187.818752,123.711138 187.620085,123.784331 187.452784,123.867982 C186.909055,124.160759 186.260772,124.307145 185.507917,124.307145 C185.256965,124.307145 184.995561,124.160759 184.723696,123.867982 C184.451832,123.575205 184.190428,123.251064 183.939476,122.895548 C183.688524,122.540033 183.489857,122.184524 183.343468,121.829009 C183.19708,121.473493 183.123886,121.233002 183.123886,121.107526 C183.123886,120.772923 183.33301,120.386045 183.751263,119.946879 C184.169516,119.507714 184.378639,118.8908 184.378639,118.096119 C184.420465,117.426914 184.451833,116.611333 184.472746,115.649351 C184.493658,114.687369 184.504114,113.558102 184.504114,112.261518 L184.504114,103.41551 C184.504114,100.362263 184.399553,97.9259758 184.190426,96.1065751 C183.9813,94.2871744 183.76172,92.8651354 183.531681,91.8404154 C183.301642,90.8156954 183.082062,90.1046759 182.872936,89.7073355 C182.663809,89.3099952 182.559248,88.9858539 182.559248,88.7349021 C182.559248,88.5257756 182.757915,88.2120905 183.155255,87.7938375 C183.552596,87.3755844 184.012667,86.9677938 184.535483,86.5704534 C185.0583,86.173113 185.581108,85.8280594 186.103924,85.5352823 C186.626741,85.2425052 186.992707,85.0961188 187.201833,85.0961188 C187.578261,85.0961188 188.038332,85.232049 188.582061,85.5039135 C189.12579,85.775778 189.397651,86.1417439 189.397651,86.6018222 C189.397651,86.97825 189.314001,87.4383214 189.1467,87.9820504 C188.979399,88.5257793 188.895749,89.0904125 188.895749,89.6759667 C188.895749,91.5581054 188.833012,93.4193035 188.707537,95.2596169 C188.582061,97.0999303 188.519324,98.8983914 188.519324,100.655054 C188.519324,101.826163 188.540236,102.92406 188.582061,103.94878 C188.623887,104.9735 188.644799,106.17596 188.644799,107.556195 C188.644799,108.852779 188.602974,110.180713 188.519324,111.540035 C188.435673,112.899358 188.352024,114.164554 188.268373,115.335663 C188.184722,116.506771 188.101073,117.531476 188.017422,118.409807 C187.933772,119.288138 187.891947,119.915509 187.891947,120.291936 C187.891947,120.626539 188.142895,120.793837 188.644799,120.793837 C188.853925,120.793837 189.073505,120.752013 189.303544,120.668362 C189.533583,120.584712 189.794988,120.542887 190.087765,120.542887 L201.443278,120.103723 Z" id="path-1"></path>
    </defs>
    <g id="Page-1" stroke="none" stroke-width="1" fill="none" fill-rule="evenodd">
        <g id="Artboard-Copy-18">
            <g id="soal150" transform="translate(-5.000000, -5.000000)">
                <g id="logo/soalexample3">
                    <g id="hollowstar" opacity="0.5" transform="translate(109.891829, 109.891829) rotate(-3.000000) translate(-109.891829, -109.891829) translate(5.329091, 5.329091)" fill="#D8D8D8">
                        <g id="Combined-Shape">
                            <path d="M89.498183,115.847332 L32.1007605,146.176696 L87.1048251,111.60902 C87.7195752,113.130663 88.5274923,114.553565 89.498183,115.847332 Z M101.120518,86.0555002 L104.562738,0 L108.004958,86.0555002 C106.888959,85.849245 105.738437,85.7414449 104.562738,85.7414449 C103.387038,85.7414449 102.236516,85.849245 101.120518,86.0555002 Z M112.260188,87.3823462 L136.069635,49.1444867 L114.890166,88.8253609 C114.057232,88.2776508 113.178215,87.7942886 112.260188,87.3823462 Z M119.360867,92.9314717 L176.901365,62.5265055 L121.855384,97.120524 C121.205282,95.6119711 120.363557,94.2054007 119.360867,92.9314717 Z M108.004958,123.069975 L104.562738,209.125475 L101.120518,123.069975 C102.236516,123.27623 103.387038,123.38403 104.562738,123.38403 C105.738437,123.38403 106.888959,123.27623 108.004958,123.069975 Z M96.0552475,121.356062 L73.3319923,157.849503 L93.6049394,119.867045 C94.3798299,120.422848 95.1986717,120.92126 96.0552475,121.356062 Z"></path>
                            <path d="M119.80597,115.60519 L158.058628,141.226722 L117.77382,117.968277 C118.51404,117.238727 119.194127,116.448328 119.80597,115.60519 Z M115.150531,120.125791 L143.041825,178.051555 L110.857001,122.305804 C112.389192,121.762245 113.830097,121.025845 115.150531,120.125791 Z M85.7414449,104.562738 L-2.84217094e-14,104.562738 L87.0725223,97.5969359 C86.2137019,99.7514421 85.7414449,102.101939 85.7414449,104.562738 Z M88.132009,95.3758315 L50.1901141,73.4700682 L89.764842,92.9311745 C89.159691,93.6999941 88.6131669,94.5171262 88.132009,95.3758315 Z M92.1953185,90.374778 L58.973384,32.8326996 L96.3376979,87.6290158 C94.8339638,88.360768 93.4422736,89.2869192 92.1953185,90.374778 Z M123.38403,104.562738 L209.125475,104.562738 L122.052947,111.52854 C122.911774,109.374032 123.38403,107.023536 123.38403,104.562738 Z"></path>
                            <path d="M94.3154935,86.3286016 L95.652701,87.9799154 C90.4535028,90.7793448 86.7216572,95.9524961 85.9079005,102.048633 L83.6594217,103.935331 C83.8822577,96.3726094 88.1203288,89.8176524 94.3154935,86.3286016 Z M105.622642,83.6765838 C112.39377,84.0145913 118.316742,87.5731009 121.891155,92.851711 L120.456274,92.851711 L120.456274,94.4767831 C117.249382,89.4338782 111.708415,86.0206205 105.354145,85.7577825 L106.534165,84.8022208 L105.622642,83.6765838 Z M86.536579,115.170805 L88.1635139,113.805645 C91.3932583,119.523716 97.5271856,123.38403 104.562738,123.38403 C104.98437,123.38403 105.402765,123.370166 105.81749,123.342869 L105.81749,125.438263 C105.402381,125.462828 104.984014,125.475285 104.562738,125.475285 C96.8849675,125.475285 90.1735646,121.337775 86.536579,115.170805 Z M112.927757,121.427621 C118.167406,118.823737 122.021491,113.849941 123.087497,107.908745 L125.209044,107.908745 C124.065044,115.022714 119.332761,120.936713 112.927757,123.735179 L112.927757,121.427621 Z"></path>
                        </g>
                    </g>
                    <g id="S---A-L" transform="translate(135.004114, 105.517221) rotate(-9.000000) translate(-135.004114, -105.517221) " fill="#FFFFFF">
                        <use xlink:href="#path-1"></use>
                        <use xlink:href="#path-1"></use>
                    </g>
                </g>
            </g>
        </g>
    </g>
</svg>